<svg width="1114" height="1114" viewBox="0 0 1114 1114" fill="none" xmlns="http://www.w3.org/2000/svg">
<mask id="path-1-outside-1_17_16" maskUnits="userSpaceOnUse" x="0" y="0" width="1114" height="1115" fill="black">
<rect fill="white" width="1114" height="1115"/>
<path d="M17 1097H290.333C468.333 1097 563.667 1095 563.667 1090.33C563.667 1086.33 541.667 1083.67 510.333 1083.67H457V883.667H777V777H977V830.333C977 861.667 979.667 883.667 983.667 883.667C988.333 883.667 990.333 788.333 990.333 610.333V337H930.333C895 337 870.333 339.667 870.333 343.667C870.333 347.667 892.333 350.333 923.667 350.333H977V550.333H923.667C892.333 550.333 870.333 553 870.333 557C870.333 561 892.333 563.667 923.667 563.667H977V763.667H670.333V657H563.667V550.333H457V497C457 465.667 454.333 443.667 450.333 443.667C446.333 443.667 443.667 465.667 443.667 497V550.333H390.333C359 550.333 337 553 337 557C337 561 377 563.667 443.667 563.667H550.333V670.333H657V777H763.667V870.333H563.667V817C563.667 785.667 561 763.667 557 763.667C553 763.667 550.333 785.667 550.333 817V870.333H243.667V670.333H443.667V763.667H390.333C359 763.667 337 766.333 337 770.333C337 774.333 361.667 777 397 777H457V657H243.667V457H350.333V350.333H550.333V403.667C550.333 435 553 457 557 457C561 457 563.667 435 563.667 403.667V350.333H670.333V137H723.667C755 137 777 134.333 777 130.333C777 126.333 752.333 123.667 717 123.667H657V337H337V443.667H230.333V870.333H177C145.667 870.333 123.667 873 123.667 877C123.667 881 181.667 883.667 283.667 883.667H443.667V1083.67H243.667V990.333H297C328.333 990.333 350.333 987.667 350.333 983.667C350.333 979.667 325.667 977 290.333 977H230.333V1083.67H30.3333V990.333H83.6667C115 990.333 137 987.667 137 983.667C137 979.667 115 977 83.6667 977H30.3333V777H137V610.333C137 503.667 134.333 443.667 130.333 443.667C126.333 443.667 123.667 501.667 123.667 603.667V763.667H30.3333V350.333H83.6667C115 350.333 137 347.667 137 343.667C137 339.667 115 337 83.6667 337H30.3333V243.667H83.6667C115 243.667 137 241 137 237C137 233 115 230.333 83.6667 230.333H30.3333V30.3333H337V230.333H243.667V123.667H183.667C148.333 123.667 123.667 126.333 123.667 130.333C123.667 134.333 145.667 137 177 137H230.333V243.667C230.333 310.333 233 350.333 237 350.333C241 350.333 243.667 328.333 243.667 297V243.667H350.333V30.3333H403.667C435 30.3333 457 27.6667 457 23.6667C457 19.6667 379 17 237 17H17V1097Z"/>
<path d="M550.333 230.333H457V177C457 145.667 454.333 123.667 450.333 123.667C446.333 123.667 443.667 148.333 443.667 183.667V243.667H563.667V30.3334H977V83.6668C977 115 979.667 137 983.667 137C987.667 137 990.333 115 990.333 83.6668V30.3334H1083.67V230.333H883.667V177C883.667 145.667 881 123.667 877 123.667C873 123.667 870.333 145.667 870.333 177V230.333H763.667V443.667H657V503.667C657 539 659.667 563.667 663.667 563.667C667.667 563.667 670.333 541.667 670.333 510.333V457H763.667V670.333H823.667C859 670.333 883.667 667.667 883.667 663.667C883.667 659.667 861.667 657 830.333 657H777V457H830.333C861.667 457 883.667 454.333 883.667 450.333C883.667 446.333 861.667 443.667 830.333 443.667H777V243.667H1083.67V1083.67H670.333V990.333H830.333C932.333 990.333 990.333 987.667 990.333 983.667C990.333 979.667 968.333 977 937 977H883.667V923.667C883.667 892.333 881 870.333 877 870.333C873 870.333 870.333 892.333 870.333 923.667V977H710.333C608.333 977 550.333 979.667 550.333 983.667C550.333 987.667 572.333 990.333 603.667 990.333H657V1097H1097V17.0001H550.333V230.333Z"/>
</mask>
<path d="M17 1097H290.333C468.333 1097 563.667 1095 563.667 1090.33C563.667 1086.33 541.667 1083.67 510.333 1083.67H457V883.667H777V777H977V830.333C977 861.667 979.667 883.667 983.667 883.667C988.333 883.667 990.333 788.333 990.333 610.333V337H930.333C895 337 870.333 339.667 870.333 343.667C870.333 347.667 892.333 350.333 923.667 350.333H977V550.333H923.667C892.333 550.333 870.333 553 870.333 557C870.333 561 892.333 563.667 923.667 563.667H977V763.667H670.333V657H563.667V550.333H457V497C457 465.667 454.333 443.667 450.333 443.667C446.333 443.667 443.667 465.667 443.667 497V550.333H390.333C359 550.333 337 553 337 557C337 561 377 563.667 443.667 563.667H550.333V670.333H657V777H763.667V870.333H563.667V817C563.667 785.667 561 763.667 557 763.667C553 763.667 550.333 785.667 550.333 817V870.333H243.667V670.333H443.667V763.667H390.333C359 763.667 337 766.333 337 770.333C337 774.333 361.667 777 397 777H457V657H243.667V457H350.333V350.333H550.333V403.667C550.333 435 553 457 557 457C561 457 563.667 435 563.667 403.667V350.333H670.333V137H723.667C755 137 777 134.333 777 130.333C777 126.333 752.333 123.667 717 123.667H657V337H337V443.667H230.333V870.333H177C145.667 870.333 123.667 873 123.667 877C123.667 881 181.667 883.667 283.667 883.667H443.667V1083.67H243.667V990.333H297C328.333 990.333 350.333 987.667 350.333 983.667C350.333 979.667 325.667 977 290.333 977H230.333V1083.67H30.3333V990.333H83.6667C115 990.333 137 987.667 137 983.667C137 979.667 115 977 83.6667 977H30.3333V777H137V610.333C137 503.667 134.333 443.667 130.333 443.667C126.333 443.667 123.667 501.667 123.667 603.667V763.667H30.3333V350.333H83.6667C115 350.333 137 347.667 137 343.667C137 339.667 115 337 83.6667 337H30.3333V243.667H83.6667C115 243.667 137 241 137 237C137 233 115 230.333 83.6667 230.333H30.3333V30.3333H337V230.333H243.667V123.667H183.667C148.333 123.667 123.667 126.333 123.667 130.333C123.667 134.333 145.667 137 177 137H230.333V243.667C230.333 310.333 233 350.333 237 350.333C241 350.333 243.667 328.333 243.667 297V243.667H350.333V30.3333H403.667C435 30.3333 457 27.6667 457 23.6667C457 19.6667 379 17 237 17H17V1097Z" fill="black"/>
<path d="M550.333 230.333H457V177C457 145.667 454.333 123.667 450.333 123.667C446.333 123.667 443.667 148.333 443.667 183.667V243.667H563.667V30.3334H977V83.6668C977 115 979.667 137 983.667 137C987.667 137 990.333 115 990.333 83.6668V30.3334H1083.67V230.333H883.667V177C883.667 145.667 881 123.667 877 123.667C873 123.667 870.333 145.667 870.333 177V230.333H763.667V443.667H657V503.667C657 539 659.667 563.667 663.667 563.667C667.667 563.667 670.333 541.667 670.333 510.333V457H763.667V670.333H823.667C859 670.333 883.667 667.667 883.667 663.667C883.667 659.667 861.667 657 830.333 657H777V457H830.333C861.667 457 883.667 454.333 883.667 450.333C883.667 446.333 861.667 443.667 830.333 443.667H777V243.667H1083.67V1083.67H670.333V990.333H830.333C932.333 990.333 990.333 987.667 990.333 983.667C990.333 979.667 968.333 977 937 977H883.667V923.667C883.667 892.333 881 870.333 877 870.333C873 870.333 870.333 892.333 870.333 923.667V977H710.333C608.333 977 550.333 979.667 550.333 983.667C550.333 987.667 572.333 990.333 603.667 990.333H657V1097H1097V17.0001H550.333V230.333Z" fill="black"/>
<path d="M17 1097H290.333C468.333 1097 563.667 1095 563.667 1090.33C563.667 1086.33 541.667 1083.67 510.333 1083.67H457V883.667H777V777H977V830.333C977 861.667 979.667 883.667 983.667 883.667C988.333 883.667 990.333 788.333 990.333 610.333V337H930.333C895 337 870.333 339.667 870.333 343.667C870.333 347.667 892.333 350.333 923.667 350.333H977V550.333H923.667C892.333 550.333 870.333 553 870.333 557C870.333 561 892.333 563.667 923.667 563.667H977V763.667H670.333V657H563.667V550.333H457V497C457 465.667 454.333 443.667 450.333 443.667C446.333 443.667 443.667 465.667 443.667 497V550.333H390.333C359 550.333 337 553 337 557C337 561 377 563.667 443.667 563.667H550.333V670.333H657V777H763.667V870.333H563.667V817C563.667 785.667 561 763.667 557 763.667C553 763.667 550.333 785.667 550.333 817V870.333H243.667V670.333H443.667V763.667H390.333C359 763.667 337 766.333 337 770.333C337 774.333 361.667 777 397 777H457V657H243.667V457H350.333V350.333H550.333V403.667C550.333 435 553 457 557 457C561 457 563.667 435 563.667 403.667V350.333H670.333V137H723.667C755 137 777 134.333 777 130.333C777 126.333 752.333 123.667 717 123.667H657V337H337V443.667H230.333V870.333H177C145.667 870.333 123.667 873 123.667 877C123.667 881 181.667 883.667 283.667 883.667H443.667V1083.67H243.667V990.333H297C328.333 990.333 350.333 987.667 350.333 983.667C350.333 979.667 325.667 977 290.333 977H230.333V1083.67H30.3333V990.333H83.6667C115 990.333 137 987.667 137 983.667C137 979.667 115 977 83.6667 977H30.3333V777H137V610.333C137 503.667 134.333 443.667 130.333 443.667C126.333 443.667 123.667 501.667 123.667 603.667V763.667H30.3333V350.333H83.6667C115 350.333 137 347.667 137 343.667C137 339.667 115 337 83.6667 337H30.3333V243.667H83.6667C115 243.667 137 241 137 237C137 233 115 230.333 83.6667 230.333H30.3333V30.3333H337V230.333H243.667V123.667H183.667C148.333 123.667 123.667 126.333 123.667 130.333C123.667 134.333 145.667 137 177 137H230.333V243.667C230.333 310.333 233 350.333 237 350.333C241 350.333 243.667 328.333 243.667 297V243.667H350.333V30.3333H403.667C435 30.3333 457 27.6667 457 23.6667C457 19.6667 379 17 237 17H17V1097Z" stroke="black" stroke-width="34" mask="url(#path-1-outside-1_17_16)"/>
<path d="M550.333 230.333H457V177C457 145.667 454.333 123.667 450.333 123.667C446.333 123.667 443.667 148.333 443.667 183.667V243.667H563.667V30.3334H977V83.6668C977 115 979.667 137 983.667 137C987.667 137 990.333 115 990.333 83.6668V30.3334H1083.67V230.333H883.667V177C883.667 145.667 881 123.667 877 123.667C873 123.667 870.333 145.667 870.333 177V230.333H763.667V443.667H657V503.667C657 539 659.667 563.667 663.667 563.667C667.667 563.667 670.333 541.667 670.333 510.333V457H763.667V670.333H823.667C859 670.333 883.667 667.667 883.667 663.667C883.667 659.667 861.667 657 830.333 657H777V457H830.333C861.667 457 883.667 454.333 883.667 450.333C883.667 446.333 861.667 443.667 830.333 443.667H777V243.667H1083.67V1083.67H670.333V990.333H830.333C932.333 990.333 990.333 987.667 990.333 983.667C990.333 979.667 968.333 977 937 977H883.667V923.667C883.667 892.333 881 870.333 877 870.333C873 870.333 870.333 892.333 870.333 923.667V977H710.333C608.333 977 550.333 979.667 550.333 983.667C550.333 987.667 572.333 990.333 603.667 990.333H657V1097H1097V17.0001H550.333V230.333Z" stroke="black" stroke-width="34" mask="url(#path-1-outside-1_17_16)"/>
</svg>
